<?xml version="1.0" encoding="utf-8"?>
<!-- Generator: Adobe Illustrator 26.3.1, SVG Export Plug-In . SVG Version: 6.00 Build 0)  -->
<svg version="1.1" id="Capa_1" xmlns="http://www.w3.org/2000/svg" xmlns:xlink="http://www.w3.org/1999/xlink" x="0px" y="0px"
	 viewBox="0 0 17.6 17.6" style="enable-background:new 0 0 17.6 17.6;" xml:space="preserve">
<style type="text/css">
	.st0{fill:#030203;}
</style>
<path class="st0" d="M16.5,0H1.1C0.5,0,0,0.5,0,1.1v15.4c0,0.6,0.5,1.1,1.1,1.1h15.4c0.6,0,1.1-0.5,1.1-1.1V1.1
	C17.6,0.5,17.1,0,16.5,0z M5.2,14.5c-1,0-1.8-0.8-1.8-1.8c0-1,0.8-1.8,1.8-1.8S7,11.7,7,12.7C7,13.7,6.2,14.5,5.2,14.5z M11.3,13.3
	c0,0.3-0.1,0.6-0.3,0.8c-0.2,0.2-0.5,0.3-0.8,0.3c-0.6,0-1.1-0.5-1.1-1.1l0-0.6C9,10.6,7.4,9,5.4,9H4.5C3.9,9,3.4,8.5,3.4,7.9
	s0.5-1.1,1.1-1.1H5h0.4c3.2,0,5.8,2.5,5.9,5.6c0,0,0,0,0,0.1l0,0.1c0,0,0,0.1,0,0.1L11.3,13.3z M15.1,12.7
	C15.1,12.7,15.1,12.7,15.1,12.7v0.5c0,0.6-0.5,1-1,1s-1-0.5-1-1v-0.8C12.9,8.3,9.5,5,5.4,4.9c0,0,0,0,0,0h-1c-0.6,0-1-0.5-1-1
	c0-0.6,0.5-1,1-1h1c0,0,0,0,0.1,0c5.1,0.1,9.3,4.1,9.6,9.2c0,0.1,0,0.1,0,0.2C15.1,12.3,15.1,12.7,15.1,12.7z"/>
</svg>
